<?xml version="1.0" encoding="UTF-8"?>
<svg version="1.1" xmlns="http://www.w3.org/2000/svg" width="291" height="291">
<path d="M0 0 C3.81324817 2.10386106 6.46053122 4.29783688 9.375 7.5 C11.18857429 9.37731099 11.18857429 9.37731099 13.5625 10.4375 C18.09062856 10.2729373 22.26325492 9.22022894 26.59570312 7.99121094 C35.13100218 5.58827421 42.77724733 3.77133139 51.5625 5.4375 C51.5625 9.4375 51.5625 9.4375 49.5625 12.4375 C50.3875 13.22125 51.2125 14.005 52.0625 14.8125 C54.5625 17.4375 54.5625 17.4375 54.5625 19.4375 C44.65129837 19.59880346 44.65129837 19.59880346 40.1875 18.9375 C34.65796322 18.17480527 29.13555453 18.3620752 23.5625 18.4375 C24.69429688 18.91960937 25.82609375 19.40171875 26.9921875 19.8984375 C28.47406608 20.53620803 29.95583105 21.17424261 31.4375 21.8125 C32.18386719 22.12960938 32.93023437 22.44671875 33.69921875 22.7734375 C34.41464844 23.0828125 35.13007813 23.3921875 35.8671875 23.7109375 C36.52702637 23.99372559 37.18686523 24.27651367 37.86669922 24.56787109 C39.5625 25.4375 39.5625 25.4375 41.5625 27.4375 C41.29939305 30.06856948 40.71183387 31.2709353 38.9375 33.25 C36.91225599 36.47197911 37.80075758 38.83653582 38.5625 42.4375 C32.73657725 38.65852308 27.16170937 34.54225847 21.5625 30.4375 C21.45292969 31.23414063 21.34335938 32.03078125 21.23046875 32.8515625 C20.37258432 38.5847414 19.60228343 43.46330893 16.5625 48.4375 C12.77203511 47.34026016 9.58808914 45.88479682 6.1875 43.9375 C-2.63198888 39.45459238 -13.99570684 38.2879205 -23.63671875 40.453125 C-27.85121541 41.93437069 -31.77997567 43.94344734 -35.66845703 46.13647461 C-39.91048031 48.4728112 -39.91048031 48.4728112 -42.76953125 48.28125 C-44.4375 47.4375 -44.4375 47.4375 -45.6875 45.25 C-46.53771258 42.06170282 -46.78398125 39.72698467 -46.4375 36.4375 C-44.56640625 34.27734375 -44.56640625 34.27734375 -42 32.375 C-41.09636719 31.70339844 -40.19273438 31.03179687 -39.26171875 30.33984375 C-35.44921317 27.77180749 -31.54370608 25.50052141 -27.4375 23.4375 C-34.29786401 24.09715039 -40.78193923 25.6737764 -47.4375 27.4375 C-47.00232504 17.6460633 -43.02045905 12.34878469 -36.0390625 5.62890625 C-25.48102167 -3.26457859 -12.78955177 -5.98351035 0 0 Z " fill="#F5F5F6" transform="translate(154.4375,77.5625)"/>
<path d="M0 0 C17.16 0 34.32 0 52 0 C52 5.61 52 11.22 52 17 C35.17 17 18.34 17 1 17 C1 33.83 1 50.66 1 68 C-4.61 68 -10.22 68 -16 68 C-16 50.84 -16 33.68 -16 16 C-10.72 16 -5.44 16 0 16 C0 10.72 0 5.44 0 0 Z " fill="#F6F6F7" transform="translate(239,223)"/>
<path d="M0 0 C17.16 0 34.32 0 52 0 C52 5.28 52 10.56 52 16 C57.28 16 62.56 16 68 16 C68 33.16 68 50.32 68 68 C62.39 68 56.78 68 51 68 C51 51.17 51 34.34 51 17 C34.17 17 17.34 17 0 17 C0 11.39 0 5.78 0 0 Z " fill="#F6F6F7" transform="translate(0,223)"/>
<path d="M0 0 C5.61 0 11.22 0 17 0 C17 16.83 17 33.66 17 51 C33.83 51 50.66 51 68 51 C68 56.61 68 62.22 68 68 C50.84 68 33.68 68 16 68 C16 62.39 16 56.78 16 51 C10.72 51 5.44 51 0 51 C0 34.17 0 17.34 0 0 Z " fill="#F6F6F7" transform="translate(223,0)"/>
<path d="M0 0 C5.61 0 11.22 0 17 0 C17 16.83 17 33.66 17 51 C11.72 51 6.44 51 1 51 C1 56.61 1 62.22 1 68 C-16.16 68 -33.32 68 -51 68 C-51 62.39 -51 56.78 -51 51 C-34.17 51 -17.34 51 0 51 C0 34.17 0 17.34 0 0 Z " fill="#F6F6F7" transform="translate(51,0)"/>
<path d="M0 0 C-6.12932976 18.64006548 -12.41801849 37.22077449 -18.875 55.75 C-19.19292511 56.66447906 -19.51085022 57.57895813 -19.83840942 58.52114868 C-21.60941931 63.61170834 -23.39591148 68.69626099 -25.20837402 73.7722168 C-25.72064652 75.2138472 -26.2279051 76.65727327 -26.72912598 78.1027832 C-27.37110829 79.95343803 -28.0325126 81.79732338 -28.6953125 83.640625 C-29.04867676 84.64125977 -29.40204102 85.64189453 -29.76611328 86.67285156 C-31.2017578 89.38052144 -32.11787748 90.06201891 -35 91 C-35.99 91 -36.98 91 -38 91 C-37.38741388 85.57932515 -36.12555048 80.72129523 -34.375 75.5625 C-34.0857666 74.69995605 -33.7965332 73.83741211 -33.49853516 72.94873047 C-29.42278519 61.0244214 -24.89777025 49.25625845 -20.41943359 37.47875977 C-16.71616778 27.71945466 -13.19999976 17.93703846 -10 8 C-13.77233856 10.68174258 -15.62676752 12.5220992 -16.96484375 16.9609375 C-17.28300049 17.97148193 -17.60115723 18.98202637 -17.92895508 20.02319336 C-18.2617749 21.12928955 -18.59459473 22.23538574 -18.9375 23.375 C-19.70494402 25.80268406 -20.47877964 28.22835364 -21.2578125 30.65234375 C-21.46636368 31.30302322 -21.67491486 31.9537027 -21.88978577 32.62409973 C-25.03106697 42.32063228 -28.6661886 51.84487407 -32.22848511 61.39251709 C-32.82117764 62.9812867 -33.41334687 64.57025163 -34.00495911 66.15942383 C-34.57071067 67.67901053 -35.13788738 69.19806752 -35.70658875 70.71655273 C-37.65753633 75.96104733 -39.39824139 81.24710923 -40.96948242 86.61938477 C-42.21317756 89.49246492 -43.54269113 91.06690953 -46 93 C-47.32 93 -48.64 93 -50 93 C-47.32039859 81.17959815 -43.6820094 69.92965339 -39.5 58.5625 C-38.8838093 56.86980661 -38.26834243 55.17684957 -37.65356445 53.48364258 C-36.39781079 50.02886595 -35.13759115 46.57577077 -33.87353516 43.12402344 C-32.05357583 38.15205347 -30.24952303 33.17442722 -28.44921875 28.1953125 C-27.36242688 25.1925461 -26.27515588 22.18995354 -25.1875 19.1875 C-24.9292041 18.47441681 -24.6709082 17.76133362 -24.40478516 17.02664185 C-23.68138864 15.03158093 -22.95624947 13.03716336 -22.23046875 11.04296875 C-21.82207764 9.91914795 -21.41368652 8.79532715 -20.99291992 7.63745117 C-20 5 -20 5 -19 3 C-16.015625 2.1484375 -16.015625 2.1484375 -12.25 1.375 C-11.01765625 1.11460937 -9.7853125 0.85421875 -8.515625 0.5859375 C-5.5595128 0.09325213 -2.97595028 -0.04779363 0 0 Z " fill="#F1F1F2" transform="translate(166,132)"/>
<path d="M0 0 C5.09336103 0.56258031 8.95461241 2.99427286 13.3125 5.5 C14.91660709 6.41026124 16.52077506 7.32041521 18.125 8.23046875 C19.33929688 8.92342041 19.33929688 8.92342041 20.578125 9.63037109 C22.89409648 10.940109 25.22381963 12.21962863 27.5625 13.48828125 C28.27881592 13.88015625 28.99513184 14.27203125 29.7331543 14.67578125 C31.0803209 15.41223865 32.4305787 16.14308066 33.78442383 16.8671875 C37.82210555 19.09721305 40.99247024 21.49310681 44 25 C44.3125 27.8125 44.3125 27.8125 44 30 C36.03917865 27.71946873 29.28662009 24.04957509 22.125 19.9375 C20.99835938 19.30005859 19.87171875 18.66261719 18.7109375 18.00585938 C10.62243775 13.4149585 10.62243775 13.4149585 7 11 C7.10589916 12.90735496 7.10589916 12.90735496 8 15 C10.29477055 16.73887669 10.29477055 16.73887669 13.21484375 18.20703125 C14.29443359 18.79419922 15.37402344 19.38136719 16.48632812 19.98632812 C17.62521484 20.58896484 18.76410156 21.19160156 19.9375 21.8125 C27.98628169 26.12115897 35.65286333 30.56463417 43 36 C40.4935945 38.80955262 37.70065552 40.47111394 34.44140625 42.328125 C33.33216797 42.96363281 32.22292969 43.59914062 31.08007812 44.25390625 C29.90764846 44.91944065 28.73512207 45.58480466 27.5625 46.25 C25.29280887 47.54659516 23.02327687 48.84346894 20.75390625 50.140625 C19.63773926 50.77548828 18.52157227 51.41035156 17.37158203 52.06445312 C15.085915 53.37660144 12.81144699 54.69843768 10.54638672 56.04492188 C9.46760254 56.68494141 8.38881836 57.32496094 7.27734375 57.984375 C5.82509399 58.85400879 5.82509399 58.85400879 4.34350586 59.74121094 C2 61 2 61 0 61 C0 54.73 0 48.46 0 42 C2.165625 40.68 4.33125 39.36 6.5625 38 C7.22967041 37.58234375 7.89684082 37.1646875 8.58422852 36.734375 C12.85622927 34.21577476 15.9277144 33.58220556 21 34 C20.875 36.27734375 20.875 36.27734375 20 39 C17.3125 40.87890625 17.3125 40.87890625 14 42.5625 C10.73158794 44.15909051 10.73158794 44.15909051 8 46 C7.29919797 48.0509923 7.29919797 48.0509923 7 50 C10.64727476 47.85660946 14.29257354 45.7098811 17.9375 43.5625 C18.97841797 42.95083984 20.01933594 42.33917969 21.09179688 41.70898438 C22.08115234 41.12568359 23.07050781 40.54238281 24.08984375 39.94140625 C25.00628662 39.40201416 25.92272949 38.86262207 26.86694336 38.30688477 C28.90616641 37.17167677 28.90616641 37.17167677 30 36 C29.27635254 35.60059204 29.27635254 35.60059204 28.53808594 35.19311523 C27.86036133 34.81872314 27.18263672 34.44433105 26.484375 34.05859375 C25.73269043 33.64424072 24.98100586 33.2298877 24.20654297 32.80297852 C22.55947574 31.88745009 20.9178793 30.96201422 19.28173828 30.02709961 C15.62650072 27.94657557 12.06795925 25.94531262 8.1328125 24.4453125 C4.58800301 22.94068113 2.46285533 21.98184783 0 19 C-1.41919334 12.7566824 -0.67968571 6.29967957 0 0 Z " fill="#F1F1F1" transform="translate(177,148)"/>
<path d="M0 0 C1.91771625 16.25961127 1.91771625 16.25961127 -1.17919922 20.68505859 C-5.48478169 24.57140227 -10.62859431 26.87845871 -16.4296875 27.17578125 C-17.70199219 27.08876953 -17.70199219 27.08876953 -19 27 C-19.66 25.68 -20.32 24.36 -21 23 C-19.41779413 22.03980636 -17.83418669 21.08192202 -16.25 20.125 C-15.36828125 19.59132812 -14.4865625 19.05765625 -13.578125 18.5078125 C-11.41725907 17.24403334 -9.25429605 16.08501165 -7 15 C-7 13.68 -7 12.36 -7 11 C-14.26 15.29 -21.52 19.58 -29 24 C-25.66518377 26.50111217 -22.85246795 28.12782854 -19.140625 29.90625 C-1.37695029 38.97578143 -1.37695029 38.97578143 1.16650391 44.56201172 C2.18534883 50.21613273 1.33994806 55.46750333 0 61 C-5.21289905 59.48949067 -9.62486943 57.16175892 -14.3125 54.5 C-15.08851562 54.06365234 -15.86453125 53.62730469 -16.6640625 53.17773438 C-22.30086801 49.99507924 -27.90973552 46.76364907 -33.5 43.5 C-34.22356689 43.07912109 -34.94713379 42.65824219 -35.69262695 42.22460938 C-38.37835227 40.64275309 -40.78623839 39.21376161 -43 37 C-43.125 33.875 -43.125 33.875 -43 31 C-37.9389202 32.26217345 -33.98662825 33.93806943 -29.48046875 36.66015625 C-28.6035009 37.18505898 -28.6035009 37.18505898 -27.70881653 37.7205658 C-25.86374776 38.82705758 -24.02555679 39.94440713 -22.1875 41.0625 C-20.33010865 42.18155243 -18.47139309 43.298382 -16.61262512 44.41514587 C-14.93780934 45.42310117 -13.26606344 46.43615215 -11.59448242 47.44946289 C-10.09088397 48.34805645 -8.56672364 49.21663818 -7 50 C-7.37175962 47.64117432 -7.60056468 46.34837404 -9.43237305 44.75073242 C-10.05668213 44.39342041 -10.68099121 44.0361084 -11.32421875 43.66796875 C-12.04657715 43.24692871 -12.76893555 42.82588867 -13.51318359 42.39208984 C-14.33383301 41.9327002 -15.15448242 41.47331055 -16 41 C-16.91217285 40.47744629 -17.8243457 39.95489258 -18.76416016 39.41650391 C-21.772481 37.70095741 -24.79082722 36.00440683 -27.8125 34.3125 C-29.8612677 33.16381319 -31.90947109 32.01411915 -33.95703125 30.86328125 C-35.30244995 30.10978394 -35.30244995 30.10978394 -36.67504883 29.34106445 C-38.49017437 28.29407458 -40.25648859 27.16234094 -42 26 C-41.65522876 23.28090899 -41.30513186 22.24640038 -39.13671875 20.49536133 C-38.32847656 20.0289624 -37.52023438 19.56256348 -36.6875 19.08203125 C-35.78418945 18.55375732 -34.88087891 18.0254834 -33.95019531 17.48120117 C-32.97663086 16.93052979 -32.00306641 16.3798584 -31 15.8125 C-30.01354492 15.24313721 -29.02708984 14.67377441 -28.01074219 14.0871582 C-21.8074873 10.52964457 -15.55635878 7.05888051 -9.25 3.6875 C-8.54230469 3.30891846 -7.83460937 2.93033691 -7.10546875 2.5402832 C-2.25282237 0 -2.25282237 0 0 0 Z " fill="#F3F3F4" transform="translate(104,148)"/>
<path d="M0 0 C5.61 0 11.22 0 17 0 C17 17.16 17 34.32 17 52 C11.39 52 5.78 52 0 52 C0 34.84 0 17.68 0 0 Z " fill="#F6F6F7" transform="translate(180,239)"/>
<path d="M0 0 C5.61 0 11.22 0 17 0 C17 17.16 17 34.32 17 52 C11.39 52 5.78 52 0 52 C0 34.84 0 17.68 0 0 Z " fill="#F6F6F7" transform="translate(137,239)"/>
<path d="M0 0 C5.61 0 11.22 0 17 0 C17 17.16 17 34.32 17 52 C11.39 52 5.78 52 0 52 C0 34.84 0 17.68 0 0 Z " fill="#F6F6F7" transform="translate(94,239)"/>
<path d="M0 0 C17.16 0 34.32 0 52 0 C52 5.61 52 11.22 52 17 C34.84 17 17.68 17 0 17 C0 11.39 0 5.78 0 0 Z " fill="#F6F6F7" transform="translate(239,180)"/>
<path d="M0 0 C17.16 0 34.32 0 52 0 C52 5.61 52 11.22 52 17 C34.84 17 17.68 17 0 17 C0 11.39 0 5.78 0 0 Z " fill="#F6F6F7" transform="translate(0,180)"/>
<path d="M0 0 C17.16 0 34.32 0 52 0 C52 5.61 52 11.22 52 17 C34.84 17 17.68 17 0 17 C0 11.39 0 5.78 0 0 Z " fill="#F6F6F7" transform="translate(239,137)"/>
<path d="M0 0 C17.16 0 34.32 0 52 0 C52 5.61 52 11.22 52 17 C34.84 17 17.68 17 0 17 C0 11.39 0 5.78 0 0 Z " fill="#F6F6F7" transform="translate(0,137)"/>
<path d="M0 0 C17.16 0 34.32 0 52 0 C52 5.61 52 11.22 52 17 C34.84 17 17.68 17 0 17 C0 11.39 0 5.78 0 0 Z " fill="#F6F6F7" transform="translate(239,94)"/>
<path d="M0 0 C17.16 0 34.32 0 52 0 C52 5.61 52 11.22 52 17 C34.84 17 17.68 17 0 17 C0 11.39 0 5.78 0 0 Z " fill="#F6F6F7" transform="translate(0,94)"/>
<path d="M0 0 C5.61 0 11.22 0 17 0 C17 16.83 17 33.66 17 51 C11.39 51 5.78 51 0 51 C0 34.17 0 17.34 0 0 Z " fill="#F6F6F7" transform="translate(180,0)"/>
<path d="M0 0 C5.61 0 11.22 0 17 0 C17 16.83 17 33.66 17 51 C11.39 51 5.78 51 0 51 C0 34.17 0 17.34 0 0 Z " fill="#F6F6F7" transform="translate(137,0)"/>
<path d="M0 0 C5.61 0 11.22 0 17 0 C17 16.83 17 33.66 17 51 C11.39 51 5.78 51 0 51 C0 34.17 0 17.34 0 0 Z " fill="#F7F7F7" transform="translate(94,0)"/>
</svg>
